<?xml version="1.0" encoding="UTF-8"?>
<svg version="1.1" xmlns="http://www.w3.org/2000/svg" width="512" height="512">
<path d="M0 0 C0.6581369 0.00021149 1.3162738 0.00042297 1.99435425 0.00064087 C12.99972052 0.03584123 22.95668499 1.05553107 33.4375 4.375 C35.16033203 4.91833984 35.16033203 4.91833984 36.91796875 5.47265625 C53.59301005 11.34976161 69.13174916 21.74790212 80.22265625 35.60546875 C83.38560843 38.13248345 85.50472864 37.66916884 89.5 37.4375 C116.49501673 36.60813127 141.17465411 46.21231317 161.359375 63.94140625 C174.16889913 76.0963 182.4640407 91.73168481 184.4375 109.375 C184.4375 110.695 184.4375 112.015 184.4375 113.375 C185.12585938 113.47683594 185.81421875 113.57867187 186.5234375 113.68359375 C206.21712338 118.35622432 224.8444276 135.67565183 235.33105469 152.49072266 C246.23428771 171.05893812 248.99038627 191.40405389 243.9765625 212.34472656 C238.14737063 234.29923725 222.59646292 252.3897055 203.3984375 264.12890625 C175.74526829 280.16663882 141.55162139 285.12472809 110.4375 277.375 C106.92574372 276.35850809 103.47029859 275.2126584 100.0390625 273.94921875 C97.50543893 273.1563816 97.50543893 273.1563816 95.37890625 274.0625 C94.73824219 274.495625 94.09757812 274.92875 93.4375 275.375 C92.69113281 275.86613281 91.94476563 276.35726563 91.17578125 276.86328125 C74.02766905 289.75888253 65.63565514 311.86233223 62.4375 332.5 C61.88157168 335.81118712 61.52183458 337.25412043 59.5625 340.0625 C57.4375 341.375 57.4375 341.375 53.4375 341.375 C53.47047271 344.31556614 53.53756919 347.24847963 53.625 350.1875 C53.63080078 351.02087891 53.63660156 351.85425781 53.64257812 352.71289062 C53.726614 355.03788325 53.85026659 357.12251188 54.4375 359.375 C56.7970083 361.40073495 56.7970083 361.40073495 59.4375 362.375 C60.6135003 364.7270006 60.55834541 366.11234401 60.55102539 368.73291016 C60.55094986 369.63369293 60.55087433 370.53447571 60.55079651 371.46255493 C60.54305458 372.92355118 60.54305458 372.92355118 60.53515625 374.4140625 C60.53303383 375.90805069 60.53303383 375.90805069 60.53086853 377.43222046 C60.52525936 380.62151053 60.5127053 383.81073106 60.5 387 C60.49498618 389.15885315 60.49042307 391.31770741 60.48632812 393.4765625 C60.47528695 398.7760655 60.45853988 404.07552778 60.4375 409.375 C61.19643555 409.36194824 61.95537109 409.34889648 62.73730469 409.33544922 C90.34074467 409.06347288 113.8419736 418.20102638 133.79736328 437.50317383 C138.18504627 441.83554989 142.19573658 446.12110756 145.4375 451.375 C145.4375 452.035 145.4375 452.695 145.4375 453.375 C146.0975 453.045 146.7575 452.715 147.4375 452.375 C165.60324384 450.64322297 179.34427577 454.39725579 194 465.27734375 C204.25691122 474.10420485 210.41114409 487.7008985 211.69140625 501.015625 C211.99171151 507.64171522 211.99171151 507.64171522 209.8428545 510.48489714 C206.60124683 513.03211915 204.59069901 512.8762413 200.4908905 512.87836456 C199.78848681 512.88417833 199.08608311 512.88999209 198.36239445 512.89598203 C195.99670379 512.91063936 193.6320414 512.89667101 191.26635742 512.88293457 C189.5580832 512.88754124 187.84981294 512.89389258 186.14155102 512.90184355 C181.43795204 512.91859219 176.73467633 512.91026547 172.03107595 512.89789867 C166.96215176 512.88887307 161.89328436 512.90280551 156.82437134 512.91381836 C146.89067387 512.93163485 136.95709708 512.92774968 127.02339482 512.9161678 C118.95238454 512.90714604 110.88140816 512.90590402 102.81039429 512.91026306 C101.08944023 512.91118246 101.08944023 512.91118246 99.33371943 512.91212043 C97.00323048 512.91339929 94.67274154 512.91469614 92.34225261 512.9160108 C70.47272837 512.92742576 48.60327111 512.91428852 26.73375785 512.89280933 C7.9556097 512.87493753 -10.82243956 512.87804138 -29.60058594 512.89648438 C-51.39013518 512.9178749 -73.17962565 512.92632704 -94.96918392 512.91403532 C-97.29125403 512.91276108 -99.61332416 512.9115036 -101.93539429 512.91026306 C-103.07799314 512.90964596 -104.22059199 512.90902886 -105.39781505 512.90839306 C-113.46213393 512.9049347 -121.52641564 512.91077895 -129.59072876 512.92018127 C-139.41414699 512.93138246 -149.23743733 512.92840088 -159.06084085 512.9070583 C-164.07599572 512.89652252 -169.0909371 512.89246897 -174.10609055 512.90565491 C-178.6928718 512.91753245 -183.27924073 512.91109332 -187.86598432 512.8897447 C-189.529447 512.88525887 -191.19294418 512.88758902 -192.85638487 512.89724785 C-195.11005534 512.90933487 -197.36229591 512.89701746 -199.6158905 512.87836456 C-200.86983706 512.87771515 -202.12378363 512.87706574 -203.41572857 512.87639666 C-207.14422689 512.28230947 -208.33201052 511.37021372 -210.5625 508.375 C-212.94647498 494.85955128 -207.80943723 481.52521037 -200.5625 470.375 C-197.77351394 466.80253552 -194.78862763 463.55479186 -191.5625 460.375 C-190.99917969 459.80136719 -190.43585938 459.22773438 -189.85546875 458.63671875 C-178.46909434 447.91524212 -163.46343687 444.84277297 -148.375 445.1875 C-147.23224609 445.20103516 -146.08949219 445.21457031 -144.91210938 445.22851562 C-142.12839037 445.2634577 -139.34571336 445.31250989 -136.5625 445.375 C-135.80066406 443.78171875 -135.80066406 443.78171875 -135.0234375 442.15625 C-126.65817791 424.8764863 -126.65817791 424.8764863 -122.5625 421.375 C-118.53334155 420.21405604 -116.52316458 420.05477847 -112.5625 421.375 C-111.881875 420.50875 -111.20125 419.6425 -110.5 418.75 C-108.45781515 416.24421571 -106.32649556 414.38034523 -103.75 412.4375 C-101.91501887 411.02248422 -101.91501887 411.02248422 -100.5625 409.375 C-100.39580682 405.83328022 -100.39580682 405.83328022 -100.5625 402.375 C-97.18125312 398.28157398 -93.40662722 395.94555402 -88.625 393.8125 C-87.97402344 393.51585449 -87.32304687 393.21920898 -86.65234375 392.91357422 C-77.92542458 389.05764058 -69.01512359 386.67760399 -59.5625 385.375 C-59.63247808 379.45624615 -59.72093885 373.53812681 -59.82495117 367.61987305 C-59.85775901 365.61571428 -59.88592051 363.61147287 -59.90893555 361.60717773 C-60.10146054 345.26713098 -60.70095982 328.53742239 -66.3125 313 C-66.56926514 312.26579834 -66.82603027 311.53159668 -67.09057617 310.77514648 C-71.26519243 299.25571665 -77.17277637 289.33159685 -85.5625 280.375 C-86.284375 279.6015625 -87.00625 278.828125 -87.75 278.03125 C-89.97416963 275.96594963 -91.75922175 274.54264648 -94.5625 273.375 C-98.50972155 273.59531004 -101.87540233 275.02559828 -105.5625 276.375 C-107.94914364 276.95582035 -110.34584243 277.49656529 -112.75 278 C-113.85730469 278.23976563 -114.96460938 278.47953125 -116.10546875 278.7265625 C-147.4194684 284.60014888 -180.41449161 278.64310932 -206.94750977 260.90966797 C-209.53101341 259.12366268 -212.05309094 257.2632682 -214.5625 255.375 C-215.57376953 254.62476563 -215.57376953 254.62476563 -216.60546875 253.859375 C-232.09699894 241.52287041 -242.61000899 221.79902109 -245.28125 202.35546875 C-247.21342149 181.87981808 -242.38152315 162.21714124 -229.65625 145.89453125 C-228.61984375 144.64736328 -228.61984375 144.64736328 -227.5625 143.375 C-226.8509375 142.51261719 -226.139375 141.65023437 -225.40625 140.76171875 C-215.05579975 128.75300974 -201.41727704 119.06903183 -186.5625 113.375 C-185.5725 113.375 -184.5825 113.375 -183.5625 113.375 C-183.54832031 112.75496094 -183.53414062 112.13492188 -183.51953125 111.49609375 C-182.80483913 98.22599949 -177.99935981 86.27411396 -170.5625 75.375 C-169.65177734 74.01761719 -169.65177734 74.01761719 -168.72265625 72.6328125 C-166.80367221 70.11341014 -165.16283344 68.18749161 -162.5625 66.375 C-159.71187511 66.04559446 -157.16892542 66.24584572 -154.31640625 66.515625 C-149.23022449 66.25590508 -146.15125943 62.67964931 -142.5625 59.375 C-141.5725 58.715 -140.5825 58.055 -139.5625 57.375 C-139.418125 56.26125 -139.27375 55.1475 -139.125 54 C-138.46308861 49.73434879 -137.87523599 49.01156045 -134.5625 46.375 C-131.85630574 45.19374765 -129.29703026 44.20795753 -126.5 43.3125 C-125.70924072 43.05645996 -124.91848145 42.80041992 -124.10375977 42.53662109 C-113.23035747 39.17168167 -102.1372028 36.93172076 -90.74291992 37.78881836 C-85.5105489 38.14561087 -81.85335951 38.34557106 -77.4453125 35.03125 C-75.03385717 32.49208519 -72.9256238 29.72933092 -70.81445312 26.93945312 C-54.74591787 6.86005104 -24.23160362 -0.0323396 0 0 Z M-41.5625 226.375 C-43.0165625 228.47875 -43.0165625 228.47875 -44.5 230.625 C-45.04527344 231.41390625 -45.59054688 232.2028125 -46.15234375 233.015625 C-48.06059855 236.00108135 -48.06059855 236.00108135 -48.5625 239.375 C-46.95943155 241.44563008 -45.41078989 243.17322241 -43.5625 245 C-39.2032249 249.50314786 -35.45213065 254.06053734 -32 259.31640625 C-30.45356855 261.65884629 -30.45356855 261.65884629 -27.5625 264.375 C-27.5625 253.485 -27.5625 242.595 -27.5625 231.375 C-32.1825 229.725 -36.8025 228.075 -41.5625 226.375 Z M28.4375 231.375 C28.4375 242.265 28.4375 253.155 28.4375 264.375 C31.17697756 261.63552244 33.28990183 258.93630429 35.5625 255.8125 C39.86331295 250.01452393 44.50265263 244.64817023 49.4375 239.375 C48.18429556 236.04672215 46.77224901 233.06978127 44.875 230.0625 C44.44058594 229.36511719 44.00617188 228.66773438 43.55859375 227.94921875 C43.18863281 227.42972656 42.81867188 226.91023437 42.4375 226.375 C37.48214375 226.375 33.06255998 229.59613078 28.4375 231.375 Z " fill="#65B293" transform="translate(255.5625,-0.375)"/>
<path d="M0 0 C0.6581369 0.00021149 1.3162738 0.00042297 1.99435425 0.00064087 C12.99972052 0.03584123 22.95668499 1.05553107 33.4375 4.375 C35.16033203 4.91833984 35.16033203 4.91833984 36.91796875 5.47265625 C53.59301005 11.34976161 69.13174916 21.74790212 80.22265625 35.60546875 C83.38560843 38.13248345 85.50472864 37.66916884 89.5 37.4375 C116.49501673 36.60813127 141.17465411 46.21231317 161.359375 63.94140625 C174.16889913 76.0963 182.4640407 91.73168481 184.4375 109.375 C184.4375 110.695 184.4375 112.015 184.4375 113.375 C185.12585938 113.47683594 185.81421875 113.57867187 186.5234375 113.68359375 C206.21712338 118.35622432 224.8444276 135.67565183 235.33105469 152.49072266 C246.23428771 171.05893812 248.99038627 191.40405389 243.9765625 212.34472656 C238.14737063 234.29923725 222.59646292 252.3897055 203.3984375 264.12890625 C175.74526829 280.16663882 141.55162139 285.12472809 110.4375 277.375 C106.92574372 276.35850809 103.47029859 275.2126584 100.0390625 273.94921875 C97.50543893 273.1563816 97.50543893 273.1563816 95.37890625 274.0625 C94.73824219 274.495625 94.09757812 274.92875 93.4375 275.375 C92.69113281 275.86613281 91.94476563 276.35726563 91.17578125 276.86328125 C74.02766905 289.75888253 65.63565514 311.86233223 62.4375 332.5 C61.88157168 335.81118712 61.52183458 337.25412043 59.5625 340.0625 C57.4375 341.375 57.4375 341.375 53.4375 341.375 C53.47047271 344.31556614 53.53756919 347.24847963 53.625 350.1875 C53.63080078 351.02087891 53.63660156 351.85425781 53.64257812 352.71289062 C53.726614 355.03788325 53.85026659 357.12251188 54.4375 359.375 C56.7970083 361.40073495 56.7970083 361.40073495 59.4375 362.375 C60.6135003 364.7270006 60.55834541 366.11234401 60.55102539 368.73291016 C60.55094986 369.63369293 60.55087433 370.53447571 60.55079651 371.46255493 C60.54305458 372.92355118 60.54305458 372.92355118 60.53515625 374.4140625 C60.53303383 375.90805069 60.53303383 375.90805069 60.53086853 377.43222046 C60.52525936 380.62151053 60.5127053 383.81073106 60.5 387 C60.49498618 389.15885315 60.49042307 391.31770741 60.48632812 393.4765625 C60.47528695 398.7760655 60.45853988 404.07552778 60.4375 409.375 C61.19643555 409.36194824 61.95537109 409.34889648 62.73730469 409.33544922 C90.34074467 409.06347288 113.8419736 418.20102638 133.79736328 437.50317383 C138.18504627 441.83554989 142.19573658 446.12110756 145.4375 451.375 C145.4375 452.035 145.4375 452.695 145.4375 453.375 C146.0975 453.045 146.7575 452.715 147.4375 452.375 C165.60324384 450.64322297 179.34427577 454.39725579 194 465.27734375 C204.25691122 474.10420485 210.41114409 487.7008985 211.69140625 501.015625 C211.99171151 507.64171522 211.99171151 507.64171522 209.8428545 510.48489714 C206.60124683 513.03211915 204.59069901 512.8762413 200.4908905 512.87836456 C199.78848681 512.88417833 199.08608311 512.88999209 198.36239445 512.89598203 C195.99670379 512.91063936 193.6320414 512.89667101 191.26635742 512.88293457 C189.5580832 512.88754124 187.84981294 512.89389258 186.14155102 512.90184355 C181.43795204 512.91859219 176.73467633 512.91026547 172.03107595 512.89789867 C166.96215176 512.88887307 161.89328436 512.90280551 156.82437134 512.91381836 C146.89067387 512.93163485 136.95709708 512.92774968 127.02339482 512.9161678 C118.95238454 512.90714604 110.88140816 512.90590402 102.81039429 512.91026306 C101.08944023 512.91118246 101.08944023 512.91118246 99.33371943 512.91212043 C97.00323048 512.91339929 94.67274154 512.91469614 92.34225261 512.9160108 C70.47272837 512.92742576 48.60327111 512.91428852 26.73375785 512.89280933 C7.9556097 512.87493753 -10.82243956 512.87804138 -29.60058594 512.89648438 C-51.39013518 512.9178749 -73.17962565 512.92632704 -94.96918392 512.91403532 C-97.29125403 512.91276108 -99.61332416 512.9115036 -101.93539429 512.91026306 C-103.07799314 512.90964596 -104.22059199 512.90902886 -105.39781505 512.90839306 C-113.46213393 512.9049347 -121.52641564 512.91077895 -129.59072876 512.92018127 C-139.41414699 512.93138246 -149.23743733 512.92840088 -159.06084085 512.9070583 C-164.07599572 512.89652252 -169.0909371 512.89246897 -174.10609055 512.90565491 C-178.6928718 512.91753245 -183.27924073 512.91109332 -187.86598432 512.8897447 C-189.529447 512.88525887 -191.19294418 512.88758902 -192.85638487 512.89724785 C-195.11005534 512.90933487 -197.36229591 512.89701746 -199.6158905 512.87836456 C-200.86983706 512.87771515 -202.12378363 512.87706574 -203.41572857 512.87639666 C-207.14422689 512.28230947 -208.33201052 511.37021372 -210.5625 508.375 C-212.94647498 494.85955128 -207.80943723 481.52521037 -200.5625 470.375 C-197.77351394 466.80253552 -194.78862763 463.55479186 -191.5625 460.375 C-190.99917969 459.80136719 -190.43585938 459.22773438 -189.85546875 458.63671875 C-178.46909434 447.91524212 -163.46343687 444.84277297 -148.375 445.1875 C-147.23224609 445.20103516 -146.08949219 445.21457031 -144.91210938 445.22851562 C-142.12839037 445.2634577 -139.34571336 445.31250989 -136.5625 445.375 C-135.80066406 443.78171875 -135.80066406 443.78171875 -135.0234375 442.15625 C-126.65817791 424.8764863 -126.65817791 424.8764863 -122.5625 421.375 C-118.53334155 420.21405604 -116.52316458 420.05477847 -112.5625 421.375 C-111.881875 420.50875 -111.20125 419.6425 -110.5 418.75 C-108.45781515 416.24421571 -106.32649556 414.38034523 -103.75 412.4375 C-101.91501887 411.02248422 -101.91501887 411.02248422 -100.5625 409.375 C-100.39580682 405.83328022 -100.39580682 405.83328022 -100.5625 402.375 C-97.18125312 398.28157398 -93.40662722 395.94555402 -88.625 393.8125 C-87.97402344 393.51585449 -87.32304687 393.21920898 -86.65234375 392.91357422 C-77.92542458 389.05764058 -69.01512359 386.67760399 -59.5625 385.375 C-59.63247808 379.45624615 -59.72093885 373.53812681 -59.82495117 367.61987305 C-59.85775901 365.61571428 -59.88592051 363.61147287 -59.90893555 361.60717773 C-60.10146054 345.26713098 -60.70095982 328.53742239 -66.3125 313 C-66.56926514 312.26579834 -66.82603027 311.53159668 -67.09057617 310.77514648 C-71.26519243 299.25571665 -77.17277637 289.33159685 -85.5625 280.375 C-86.284375 279.6015625 -87.00625 278.828125 -87.75 278.03125 C-89.97416963 275.96594963 -91.75922175 274.54264648 -94.5625 273.375 C-98.50972155 273.59531004 -101.87540233 275.02559828 -105.5625 276.375 C-107.94914364 276.95582035 -110.34584243 277.49656529 -112.75 278 C-113.85730469 278.23976563 -114.96460938 278.47953125 -116.10546875 278.7265625 C-147.4194684 284.60014888 -180.41449161 278.64310932 -206.94750977 260.90966797 C-209.53101341 259.12366268 -212.05309094 257.2632682 -214.5625 255.375 C-215.57376953 254.62476563 -215.57376953 254.62476563 -216.60546875 253.859375 C-232.09699894 241.52287041 -242.61000899 221.79902109 -245.28125 202.35546875 C-247.21342149 181.87981808 -242.38152315 162.21714124 -229.65625 145.89453125 C-228.61984375 144.64736328 -228.61984375 144.64736328 -227.5625 143.375 C-226.8509375 142.51261719 -226.139375 141.65023437 -225.40625 140.76171875 C-215.05579975 128.75300974 -201.41727704 119.06903183 -186.5625 113.375 C-185.5725 113.375 -184.5825 113.375 -183.5625 113.375 C-183.54832031 112.75496094 -183.53414062 112.13492188 -183.51953125 111.49609375 C-182.65052702 95.36079905 -175.62725067 79.7752726 -164.6171875 67.97265625 C-162.35177356 66.21114617 -161.09269829 65.72389862 -158.25 65.5625 C-154.5625 66.375 -154.5625 66.375 -152.5625 67.9375 C-151.17837328 71.31130888 -151.24442244 73.73982792 -151.5625 77.375 C-152.90481547 79.75847043 -154.15496749 81.68669597 -155.8125 83.8125 C-163.66610887 94.50514949 -166.72572949 103.50883082 -167.0234375 116.8515625 C-167.66235237 121.02765824 -168.45461433 122.53435291 -171.5625 125.375 C-174.20397498 126.61871824 -176.70387331 127.65131691 -179.4375 128.625 C-200.03307232 136.57165315 -215.30380887 150.17104907 -225 170.0625 C-230.95042552 184.89780747 -230.03723549 202.181787 -224.19140625 216.8046875 C-220.03811973 225.90805411 -214.6580525 232.44542534 -207.5625 239.375 C-206.92828125 240.02984375 -206.2940625 240.6846875 -205.640625 241.359375 C-197.10177564 249.59596421 -184.75256236 255.70121068 -173.5625 259.375 C-172.74136719 259.64828125 -171.92023438 259.9215625 -171.07421875 260.203125 C-143.08969049 268.66067132 -113.24694656 264.69120245 -87.5 251.4375 C-82.0841467 248.27336932 -77.26542418 244.51296251 -72.5625 240.375 C-71.7890625 239.69695312 -71.015625 239.01890625 -70.21875 238.3203125 C-61.79069596 230.44065924 -56.59180142 220.62703752 -51.5625 210.375 C-50.9025 209.715 -50.2425 209.055 -49.5625 208.375 C-42.8098743 208.48391332 -37.75784637 210.39497469 -31.625 213.1015625 C-8.53324166 222.70349262 16.39585617 219.46861161 38.9609375 210.42578125 C40.47187875 209.78470365 41.96946078 209.10901961 43.4375 208.375 C47.13253253 207.882329 48.84963973 207.96349781 51.9375 210.125 C55.09159422 213.66079989 56.81237094 218.0852915 58.84765625 222.31640625 C61.19276633 226.82800624 64.08444459 230.57163756 67.4375 234.375 C68.08203125 235.11363281 68.7265625 235.85226563 69.390625 236.61328125 C83.84053117 252.10679176 106.73312448 262.54042477 127.85571289 263.53613281 C131.05087132 263.57388041 134.24577929 263.60611231 137.44116211 263.61523438 C139.47097003 263.6248623 141.4997289 263.65591523 143.52929688 263.6875 C152.51224836 263.76048268 160.75000575 262.66254582 169.4375 260.375 C170.19313232 260.17616211 170.94876465 259.97732422 171.72729492 259.77246094 C185.22398315 255.95339548 196.97867458 249.69699657 207.4375 240.375 C208.20835937 239.69824219 208.97921875 239.02148438 209.7734375 238.32421875 C221.15332761 227.70169334 228.7569333 213.41579546 229.640625 197.78125 C229.88013968 177.82169349 224.40913577 162.06427998 210.4375 147.375 C200.28238946 137.72215149 188.47179412 130.9683693 175.1796875 126.67578125 C171.76690724 125.05689831 170.36611565 123.62105028 168.4375 120.375 C167.96875 116.9921875 167.96875 116.9921875 167.9375 113.25 C167.40176254 98.26939569 160.13246336 84.9813425 149.30078125 74.7578125 C133.63994066 61.72491651 115.05836912 54.59287743 94.671875 54.19921875 C93.45242188 54.17537109 92.23296875 54.15152344 90.9765625 54.12695312 C88.43507139 54.08372158 85.89334714 54.05261594 83.3515625 54.03320312 C81.53011719 53.99163086 81.53011719 53.99163086 79.671875 53.94921875 C78.57069336 53.93463623 77.46951172 53.92005371 76.33496094 53.9050293 C71.2849228 52.98123145 69.12779524 49.075751 66.25 45.125 C53.40886278 28.57239485 32.9099903 19.24854834 12.4375 16.375 C-0.17179513 15.29221399 -12.29597997 16.38521038 -24.5625 19.375 C-25.44679687 19.56835938 -26.33109375 19.76171875 -27.2421875 19.9609375 C-43.46720235 24.05708879 -57.07479182 34.73763735 -67.5625 47.375 C-68.18511719 48.43976562 -68.80773437 49.50453125 -69.44921875 50.6015625 C-71.36359802 52.89099051 -72.39757675 53.3433748 -75.3762207 53.91455078 C-78.9492883 54.12281226 -82.48356713 54.15862254 -86.0625 54.125 C-98.0678578 54.16356111 -109.68599668 54.42991195 -120.9375 59 C-125.71924968 60.93733652 -129.38304041 61.76861394 -134.5625 61.375 C-137 59.8125 -137 59.8125 -138.5625 57.375 C-139.0625 53.875 -139.0625 53.875 -138.5625 50.375 C-135.42329005 46.2081203 -131.30478893 44.85073306 -126.5 43.3125 C-125.70924072 43.05645996 -124.91848145 42.80041992 -124.10375977 42.53662109 C-113.23035747 39.17168167 -102.1372028 36.93172076 -90.74291992 37.78881836 C-85.5105489 38.14561087 -81.85335951 38.34557106 -77.4453125 35.03125 C-75.03385717 32.49208519 -72.9256238 29.72933092 -70.81445312 26.93945312 C-54.74591787 6.86005104 -24.23160362 -0.0323396 0 0 Z M-41.5625 226.375 C-43.0165625 228.47875 -43.0165625 228.47875 -44.5 230.625 C-45.04527344 231.41390625 -45.59054688 232.2028125 -46.15234375 233.015625 C-48.06059855 236.00108135 -48.06059855 236.00108135 -48.5625 239.375 C-46.95943155 241.44563008 -45.41078989 243.17322241 -43.5625 245 C-39.2032249 249.50314786 -35.45213065 254.06053734 -32 259.31640625 C-30.45356855 261.65884629 -30.45356855 261.65884629 -27.5625 264.375 C-27.5625 253.485 -27.5625 242.595 -27.5625 231.375 C-32.1825 229.725 -36.8025 228.075 -41.5625 226.375 Z M28.4375 231.375 C28.4375 242.265 28.4375 253.155 28.4375 264.375 C31.17697756 261.63552244 33.28990183 258.93630429 35.5625 255.8125 C39.86331295 250.01452393 44.50265263 244.64817023 49.4375 239.375 C48.18429556 236.04672215 46.77224901 233.06978127 44.875 230.0625 C44.44058594 229.36511719 44.00617188 228.66773438 43.55859375 227.94921875 C43.18863281 227.42972656 42.81867188 226.91023437 42.4375 226.375 C37.48214375 226.375 33.06255998 229.59613078 28.4375 231.375 Z " fill="#000100" transform="translate(255.5625,-0.375)"/>
<path d="M0 0 C5.7942947 4.91317881 11.96238964 10.18938886 16.32421875 16.4453125 C17.74337292 18.56188767 17.74337292 18.56188767 21.125 18.8125 C25.1787468 18.62823878 28.14397186 17.16906611 31.75 15.375 C48.75548854 7.11630694 70.89973627 6.35803803 88.78808594 12.45117188 C99.21261335 16.36361273 108.52896816 21.62875794 116.75 29.1875 C117.51699219 29.87457031 118.28398437 30.56164062 119.07421875 31.26953125 C124.99467644 36.84823078 129.70672591 43.12554171 133.75 50.1875 C133.75 50.8475 133.75 51.5075 133.75 52.1875 C134.94625 52.39375 136.1425 52.6 137.375 52.8125 C138.04789062 52.92851562 138.72078125 53.04453125 139.4140625 53.1640625 C142.47568138 53.19478108 144.85365912 52.15775616 147.75 51.1875 C158.7202218 49.91189281 168.51284939 51.72746284 177.57421875 58.20703125 C185.40034359 64.88672824 189.9249845 71.29994573 192.75 81.1875 C64.05 81.1875 -64.65 81.1875 -197.25 81.1875 C-195.48189614 68.81077298 -189.573959 60.46133253 -180.125 52.3671875 C-170.89447584 45.61397314 -159.55618127 42.87247624 -148.25 44.1875 C-145.34555182 44.8527859 -142.51410741 45.64586785 -139.66015625 46.5 C-136.65487977 47.35725877 -134.33917175 47.79026522 -131.25 47.1875 C-128.03888163 43.75857321 -126.44211906 40.54037303 -124.9375 36.125 C-122.49012763 29.4385652 -119.38413576 21.32163576 -114.25 16.1875 C-113.99916654 11.56168093 -113.99916654 11.56168093 -115.0625 7.125 C-115.25 5.1875 -115.25 5.1875 -113.1875 2.25 C-112.22927229 1.20948681 -111.24893876 0.18899359 -110.25 -0.8125 C-109.75628906 -1.3178125 -109.26257813 -1.823125 -108.75390625 -2.34375 C-107.25 -3.75 -107.25 -3.75 -104.25 -5.8125 C-100.06395349 -5.62645349 -100.06395349 -5.62645349 -98.25 -3.8125 C-92.45879769 -4.18230858 -88.2893225 -6.05126415 -83.1875 -8.6875 C-56.52538762 -21.65359733 -23.55648617 -18.14288376 0 0 Z " fill="#B2E49E" transform="translate(258.25,415.8125)"/>
<path d="M0 0 C7.92 0 15.84 0 24 0 C24.029729 3.24021973 24.029729 3.24021973 24.06005859 6.54589844 C24.12696189 13.68258867 24.20460147 20.819133 24.28752708 27.95565414 C24.33747549 32.28257795 24.38380565 36.60947752 24.421875 40.93652344 C24.45874622 45.11227032 24.50511114 49.28781369 24.55806351 53.46338654 C24.5765977 55.05654582 24.59170928 56.64974872 24.60334396 58.24297333 C24.62022325 60.47436875 24.64926172 62.70529907 24.68115234 64.93652344 C24.69447601 66.20671326 24.70779968 67.47690308 24.7215271 68.7855835 C24.983899 71.8141459 25.2106143 73.56454276 27 76 C30.36760187 77.1716367 30.36760187 77.1716367 34 77 C38.0959452 73.96682846 39.19811866 70.12275799 40.625 65.4375 C46.91015478 46.41222259 57.44280351 30.6284736 71 16 C74.46167537 16.5884084 76.16164369 17.7887308 78.6875 20.1875 C82.82974012 23.96310116 87.26971651 27.01072362 92 30 C91.34 30.639375 90.68 31.27875 90 31.9375 C88.99520631 32.95361531 87.99589851 33.97516497 87 35 C86.39542969 35.62003906 85.79085937 36.24007812 85.16796875 36.87890625 C70.35232139 52.74655224 59.69091443 76.30898772 58.5625 98.125 C58.50191406 98.95257813 58.44132812 99.78015625 58.37890625 100.6328125 C58.58386719 101.41398437 58.78882813 102.19515625 59 103 C60.48693359 103.85464844 60.48693359 103.85464844 62.00390625 104.7265625 C65 107 65 107 65.4934082 108.99853516 C65.59035612 111.43937166 65.52357229 113.81189068 65.375 116.25 C65.33439453 117.51070312 65.33439453 117.51070312 65.29296875 118.796875 C65.22244109 120.86568634 65.11482367 122.93317393 65 125 C64.030625 125.45375 63.06125 125.9075 62.0625 126.375 C58.92920418 127.65786221 58.92920418 127.65786221 58 130 C57.88159887 131.57206643 57.82296967 133.14883269 57.79467773 134.72509766 C57.77473251 135.70596344 57.75478729 136.68682922 57.73423767 137.69741821 C57.71752518 138.75891083 57.70081268 139.82040344 57.68359375 140.9140625 C57.6524221 142.54122696 57.6524221 142.54122696 57.62062073 144.20126343 C57.55509366 147.67577621 57.49622553 151.15036624 57.4375 154.625 C57.39431779 156.97657058 57.3507036 159.32813326 57.30664062 161.6796875 C57.19940907 167.4530427 57.09764856 173.2264752 57 179 C56.19175781 179.19335938 55.38351562 179.38671875 54.55078125 179.5859375 C53.48214844 179.84632813 52.41351563 180.10671875 51.3125 180.375 C50.25675781 180.63023437 49.20101562 180.88546875 48.11328125 181.1484375 C45.29590443 181.91906253 42.70552166 182.91518589 40 184 C36.88986574 183.90318648 35.98019231 182.98119949 33.6953125 180.8125 C32.84710938 179.884375 31.99890625 178.95625 31.125 178 C16.41902512 162.65234632 -4.56664896 154.28673322 -25.4453125 151.890625 C-26.54178101 151.75938232 -26.54178101 151.75938232 -27.66040039 151.62548828 C-29.43980259 151.41306578 -31.21983926 151.20596901 -33 151 C-33.01213028 150.12915016 -33.01213028 150.12915016 -33.02450562 149.2407074 C-33.11147828 143.1232444 -33.21100508 137.00607163 -33.31738281 130.88891602 C-33.35534511 128.61487759 -33.3902509 126.34078578 -33.421875 124.06665039 C-33.93847799 87.36362224 -41.18078839 56.58187346 -68 30 C-67.28714844 29.49210937 -66.57429687 28.98421875 -65.83984375 28.4609375 C-61.40820622 25.27588442 -57.0666803 22.15316949 -53.0625 18.4375 C-50 16 -50 16 -48.06640625 16.08984375 C-33.70452528 22.41558717 -23.61501098 47.4799116 -18 61 C-16.57165431 64.76832944 -15.28122978 68.56661512 -14.0703125 72.41015625 C-13.15909026 75.29629471 -13.15909026 75.29629471 -10 77 C-6.42243314 77.00082535 -6.42243314 77.00082535 -3 76 C-0.47743819 72.59436439 -0.72431828 69.05167581 -0.68115234 64.93652344 C-0.67110672 64.23368225 -0.6610611 63.53084106 -0.65071106 62.80670166 C-0.61989881 60.49093418 -0.60284964 58.17528221 -0.5859375 55.859375 C-0.56722425 54.25082405 -0.54765071 52.6422829 -0.5272522 51.03375244 C-0.47594149 46.8055194 -0.43631015 42.57725454 -0.39910889 38.34887695 C-0.35906256 34.03198379 -0.30797309 29.71522289 -0.2578125 25.3984375 C-0.16106571 16.93237537 -0.07767789 8.46625859 0 0 Z " fill="#8E7A4F" transform="translate(244,234)"/>
<path d="M0 0 C13.87263228 2.82155233 26.57387774 9.47722407 37 19 C37.69351563 19.59039062 38.38703125 20.18078125 39.1015625 20.7890625 C47.94797667 28.81573173 55.51539324 41.63833068 56.21484375 53.70703125 C56.33444476 56.32651536 56.38223546 58.92214525 56.3984375 61.546875 C57.16893089 65.96970721 58.46515992 67.29043297 62 70 C65.29859994 71.55471766 65.29859994 71.55471766 68.9375 72.75 C88.89442914 80.17606284 104.57236285 94.48517159 113.9375 113.625 C120.2847482 128.83650863 119.68268063 146.28662795 113.62890625 161.4296875 C109.47361914 170.5374391 104.10150252 177.07022656 97 184 C95.90365234 185.10988281 95.90365234 185.10988281 94.78515625 186.2421875 C84.55832013 196.03100271 69.94120238 203.56988215 56 206 C56 205.34 56 204.68 56 204 C56.96486328 203.54173828 56.96486328 203.54173828 57.94921875 203.07421875 C77.40556392 193.22114809 90.30581096 177.2334832 98.12890625 157.09375 C103.45827907 139.99856377 101.10328473 122.30365134 93.73828125 106.2578125 C90.98362103 101.09514592 87.66190807 96.54941735 84 92 C83.54238281 91.37867188 83.08476562 90.75734375 82.61328125 90.1171875 C74.96770577 80.24452246 63.92900838 74.05844285 52.82421875 68.88671875 C51.54835221 68.26010192 50.27364155 67.631127 49 67 C48.28996826 66.67845947 47.57993652 66.35691895 46.84838867 66.02563477 C43.63889719 64.36828342 41.52095293 63.07830071 39.92016602 59.76489258 C39.10907284 57.04637648 38.49898361 54.34310235 37.9375 51.5625 C33.10961082 31.30595911 23.31701796 16.64607481 6 5 C4.01997915 3.96100172 2.02543292 2.94742889 0 2 C0 1.34 0 0.68 0 0 Z " fill="#59A485" transform="translate(368,55)"/>
<path d="M0 0 C23.64594191 -0.87218638 44.0785516 3.52231101 62 20 C63.15048828 21.03060547 63.15048828 21.03060547 64.32421875 22.08203125 C70.24467644 27.66073078 74.95672591 33.93804171 79 41 C79 41.66 79 42.32 79 43 C80.19625 43.20625 81.3925 43.4125 82.625 43.625 C83.29789062 43.74101562 83.97078125 43.85703125 84.6640625 43.9765625 C87.72568138 44.00728108 90.10365912 42.97025616 93 42 C103.9702218 40.72439281 113.76284939 42.53996284 122.82421875 49.01953125 C130.49348009 55.56534324 135.44456319 62.22782036 138 72 C134.27189132 72.23292281 130.54565008 72.37459124 126.8125 72.5 C125.22985352 72.60054687 125.22985352 72.60054687 123.61523438 72.703125 C120.55350325 72.78039266 117.97195748 72.75220057 115 72 C112.54233736 69.63699286 111.36003677 67.08531309 110 64 C103.84822786 55.45587203 93.44253255 48.9449925 83 47 C80.75158439 46.90585452 78.50038041 46.87008651 76.25 46.875 C75.00863281 46.87628906 73.76726562 46.87757813 72.48828125 46.87890625 C69.67271945 46.97664692 67.18344651 47.26121055 64.4375 47.8125 C61 48 61 48 58.4375 46.25 C56.30039178 43.69948396 54.7043546 40.85031429 53 38 C42.36886917 20.96263698 26.06233768 10.85712632 7.546875 4.10546875 C2.12641643 2.12641643 2.12641643 2.12641643 0 0 Z " fill="#93D3A2" transform="translate(313,425)"/>
</svg>
